<?xml version="1.0" encoding="UTF-8" standalone="no"?>
<svg
   xmlns:dc="http://purl.org/dc/elements/1.1/"
   xmlns:cc="http://creativecommons.org/ns#"
   xmlns:rdf="http://www.w3.org/1999/02/22-rdf-syntax-ns#"
   xmlns:svg="http://www.w3.org/2000/svg"
   xmlns="http://www.w3.org/2000/svg"
   xmlns:sodipodi="http://sodipodi.sourceforge.net/DTD/sodipodi-0.dtd"
   xmlns:inkscape="http://www.inkscape.org/namespaces/inkscape"
   width="210mm"
   height="297mm"
   viewBox="0 0 210 297"
   version="1.1"
   id="svg8"
   inkscape:version="1.0beta2 (2b71d25, 2019-12-03)"
   sodipodi:docname="p.svg"
   inkscape:export-filename="/Users/jamesglass/Sites/wcoding/frontend/brochure_site/images/p.png"
   inkscape:export-xdpi="92.738831"
   inkscape:export-ydpi="92.738831">
  <defs
     id="defs2" />
  <sodipodi:namedview
     id="base"
     pagecolor="#ffffff"
     bordercolor="#666666"
     borderopacity="1.0"
     inkscape:pageopacity="0.0"
     inkscape:pageshadow="2"
     inkscape:zoom="0.87443268"
     inkscape:cx="97.531187"
     inkscape:cy="272.40903"
     inkscape:document-units="mm"
     inkscape:current-layer="layer1"
     inkscape:document-rotation="0"
     showgrid="false"
     inkscape:window-width="1440"
     inkscape:window-height="786"
     inkscape:window-x="0"
     inkscape:window-y="23"
     inkscape:window-maximized="0" />
  <metadata
     id="metadata5">
    <rdf:RDF>
      <cc:Work
         rdf:about="">
        <dc:format>image/svg+xml</dc:format>
        <dc:type
           rdf:resource="http://purl.org/dc/dcmitype/StillImage" />
        <dc:title />
      </cc:Work>
    </rdf:RDF>
  </metadata>
  <g
     inkscape:label="Layer 1"
     inkscape:groupmode="layer"
     id="layer1"
     style="display:inline" />
  <g
     inkscape:groupmode="layer"
     id="layer2"
     inkscape:label="Layer 2"
     style="display:none">
    <path
       style="fill:none;stroke:#000000;stroke-width:0.264583px;stroke-linecap:butt;stroke-linejoin:miter;stroke-opacity:1"
       d="m 32.874151,59.333836 68.688269,1.336347 c 0,0 38.21954,0.801809 50.24667,15.501633 12.02713,14.699823 19.24341,43.297664 10.15624,59.066564 -9.08716,15.7689 -18.70887,25.3906 -27.79603,28.33057 -9.08716,2.93996 -38.486811,2.40542 -38.486811,2.40542 l -23.252448,-1.33634 v 52.65209 l -41.694046,-0.26727 z"
       id="path93"
       inkscape:connector-curvature="0" />
  </g>
  <g
     inkscape:groupmode="layer"
     id="layer5"
     inkscape:label="2.6" />
  <g
     inkscape:groupmode="layer"
     id="layer4"
     inkscape:label="2.5"
     style="display:inline">
    <path
       inkscape:connector-curvature="0"
       id="path931"
       d="m 34.158061,67.896295 7.690705,-7.583887 c 0,0 2.136306,-1.815862 3.204461,-1.068154 1.068152,0.747707 0.961337,2.136306 0.21363,3.311276 -0.747707,1.174967 -8.01115,7.797519 -8.01115,7.797519 0,0 -0.747707,1.068152 -2.456754,-0.320446 -1.709044,-1.388601 -0.640892,-2.136308 -0.640892,-2.136308 z"
       style="fill:#ffffff;fill-opacity:1;stroke:#ffffff;stroke-width:0.26458300000000001px;stroke-linecap:butt;stroke-linejoin:miter;stroke-opacity:1" />
    <path
       inkscape:connector-curvature="0"
       id="path933"
       d="m 35.012586,76.548338 c 0,0 16.770006,-17.410899 17.197268,-17.410899 0.42726,0 1.922674,-0.427263 2.136307,0.320447 0.21363,0.747707 0.640889,1.388597 -0.106818,2.456752 -0.747707,1.068152 -16.556376,17.624529 -17.944975,17.944976 -1.388597,0.320445 -1.815859,0.747706 -2.029489,-0.320447 -0.213633,-1.068152 0.747707,-2.990829 0.747707,-2.990829 z"
       style="fill:#ffffff;fill-opacity:1;stroke:#ffffff;stroke-width:0.26458300000000001px;stroke-linecap:butt;stroke-linejoin:miter;stroke-opacity:1" />
    <path
       inkscape:connector-curvature="0"
       id="path935"
       d="m 34.798953,86.375348 c 0,0 25.849311,-25.84931 26.703834,-26.276572 0.854524,-0.42726 1.922676,-1.174967 2.456751,-0.64089 0.53408,0.534075 0.854525,1.388597 0.106815,2.670381 -0.747705,1.281785 -26.91746,27.02428 -27.8788,27.344725 -0.961337,0.320447 -2.029492,0.320447 -2.029492,-0.534075 0,-0.854525 -0.42726,-1.602232 0.640892,-2.563569 z"
       style="fill:#ffffff;fill-opacity:1;stroke:#ffffff;stroke-width:0.26458300000000001px;stroke-linecap:butt;stroke-linejoin:miter;stroke-opacity:1" />
    <path
       inkscape:connector-curvature="0"
       id="path945"
       d="M 33.944431,96.522804 70.048013,60.739668 c 0,0 1.922677,-1.709044 2.884014,-1.174967 0.961337,0.534075 0.747707,2.243122 0.21363,2.990829 -0.534075,0.747707 -35.355872,36.103581 -36.637657,36.424026 -1.281784,0.320447 -1.922677,0.106817 -2.456754,-0.42726 -0.534075,-0.534077 -0.534075,-1.60223 -0.106815,-2.029492 z"
       style="fill:#ffffff;fill-opacity:1;stroke:#ffffff;stroke-width:0.26458300000000001px;stroke-linecap:butt;stroke-linejoin:miter;stroke-opacity:1" />
    <path
       inkscape:connector-curvature="0"
       id="path947"
       d="m 34.158061,107.84523 c 0,0 -0.534075,-1.60223 0,-2.56357 0.534077,-0.96134 4.272613,-4.80669 5.98166,-6.195287 1.709045,-1.388599 39.414856,-37.812628 40.162563,-38.346705 0.74771,-0.534075 2.13631,-1.281782 2.563569,-1.068152 0.42726,0.21363 3.418092,0.534077 0,3.845351 -3.418091,3.311276 -45.610146,43.794283 -45.610146,43.794283 0,0 -1.495414,1.60223 -3.097646,0.53408 z"
       style="fill:#ffffff;fill-opacity:1;stroke:#ffffff;stroke-width:0.26458300000000001px;stroke-linecap:butt;stroke-linejoin:miter;stroke-opacity:1" />
    <path
       inkscape:connector-curvature="0"
       id="path949"
       d="m 33.623986,115.00185 c 0,0 55.330343,-53.407657 56.398495,-54.048549 1.068154,-0.640893 1.709047,-1.709047 3.204458,-0.640893 1.495417,1.068152 -1.922674,3.952166 -1.922674,3.952166 L 35.867108,117.56542 c 0,0 -1.17497,0.42726 -1.815862,-0.21363 -0.640892,-0.64089 -1.174967,-1.3886 -0.42726,-2.34994 z"
       style="fill:#ffffff;fill-opacity:1;stroke:#ffffff;stroke-width:0.26458300000000001px;stroke-linecap:butt;stroke-linejoin:miter;stroke-opacity:1" />
    <path
       inkscape:connector-curvature="0"
       id="path969"
       d="m 33.837616,123.86753 c 0,0 64.943721,-62.380155 65.798243,-63.021047 0.854521,-0.64089 2.243121,-0.961337 2.990831,-0.64089 0.74771,0.320445 -0.10682,2.670382 -1.49541,4.058981 -1.388606,1.3886 -64.089202,61.525626 -64.089202,61.525626 0,0 -1.495417,2.56357 -2.34994,1.3886 -0.854522,-1.17497 -1.388599,-2.34994 -0.854522,-3.31127 z"
       style="fill:#ffffff;fill-opacity:1;stroke:#ffffff;stroke-width:0.26458300000000001px;stroke-linecap:butt;stroke-linejoin:miter;stroke-opacity:1" />
    <path
       inkscape:connector-curvature="0"
       id="path979"
       d="m 33.837616,135.83084 c 0,0 -0.961337,-1.49541 0.427263,-2.7772 1.388599,-1.28178 39.842115,-38.23988 40.26938,-38.453513 0.427257,-0.21363 1.709044,1.281785 1.068152,3.204462 C 74.961516,99.727263 37.255707,135.5104 36.508,135.93766 c -0.747707,0.42726 -1.709047,0.96134 -2.670384,-0.10682 z"
       style="fill:#ffffff;fill-opacity:1;stroke:#ffffff;stroke-width:0.26458300000000001px;stroke-linecap:butt;stroke-linejoin:miter;stroke-opacity:1" />
    <path
       inkscape:connector-curvature="0"
       id="path981"
       d="m 77.738715,93.42516 c 0,0 -0.854522,-0.961339 0.427265,-2.456754 1.281782,-1.495414 30.76281,-30.121923 30.76281,-30.121923 0,0 2.34994,-1.281782 2.99083,-0.64089 0.64089,0.64089 0.74771,2.777197 -2.45675,5.554396 -3.20446,2.777198 -29.267401,27.878801 -29.267401,27.878801 0,0 -0.747707,0.747707 -2.456754,-0.21363 z"
       style="fill:#ffffff;fill-opacity:1;stroke:#ffffff;stroke-width:0.26458300000000001px;stroke-linecap:butt;stroke-linejoin:miter;stroke-opacity:1" />
    <path
       inkscape:connector-curvature="0"
       id="path983"
       d="m 87.245282,93.959235 c 0,0 -0.854522,-1.388597 0.213632,-2.563566 1.068152,-1.17497 29.801476,-28.733324 29.801476,-28.733324 0,0 2.45675,-2.563569 3.31127,-1.815862 0.85453,0.74771 2.88402,2.029492 -1.17497,5.661213 -4.05898,3.631721 -28.19924,27.131094 -28.19924,27.131094 0,0 -2.563569,2.136307 -3.952168,0.320445 z"
       style="fill:#ffffff;fill-opacity:1;stroke:#ffffff;stroke-width:0.26458300000000001px;stroke-linecap:butt;stroke-linejoin:miter;stroke-opacity:1" />
    <path
       inkscape:connector-curvature="0"
       id="path985"
       d="m 97.179105,94.066053 c 0,0 -0.534074,-1.495415 0,-2.34994 0.53408,-0.854522 29.267405,-28.519691 29.267405,-28.519691 0,0 1.28178,-1.388599 1.81586,-0.854522 0.53407,0.534075 2.99082,1.602229 -0.32045,4.593058 -3.31128,2.990829 -27.66517,26.27657 -27.66517,26.27657 0,0 -0.85452,1.495417 -3.097645,0.854525 z"
       style="fill:#ffffff;fill-opacity:1;stroke:#ffffff;stroke-width:0.26458300000000001px;stroke-linecap:butt;stroke-linejoin:miter;stroke-opacity:1" />
    <path
       inkscape:connector-curvature="0"
       id="path987"
       d="m 106.15159,95.24102 c 0,0 -1.28178,-1.81586 0.32045,-3.631722 1.60223,-1.815859 27.45154,-26.169754 27.45154,-26.169754 0,0 2.24313,-1.495415 2.88402,-0.747708 0.64089,0.747708 -0.42726,3.204459 -2.13631,4.806689 -1.70905,1.602231 -24.88797,24.140265 -24.88797,24.140265 0,0 -1.17497,2.456752 -3.63173,1.60223 z"
       style="fill:#ffffff;fill-opacity:1;stroke:#ffffff;stroke-width:0.26458300000000001px;stroke-linecap:butt;stroke-linejoin:miter;stroke-opacity:1" />
    <path
       inkscape:connector-curvature="0"
       id="path989"
       d="m 114.48319,96.629619 c 0,0 -0.85452,-0.854522 0,-2.243122 0.85452,-1.388599 25.74249,-25.422047 25.74249,-25.422047 0,0 1.60224,-1.922677 2.88403,-1.17497 1.28178,0.747707 0.10681,3.418091 -0.42727,3.952169 -0.53407,0.534074 -25.52887,24.567525 -25.52887,24.567525 0,0 -1.92267,1.815859 -2.67038,0.320445 z"
       style="fill:#ffffff;fill-opacity:1;stroke:#ffffff;stroke-width:0.264583px;stroke-linecap:butt;stroke-linejoin:miter;stroke-opacity:1" />
    <path
       inkscape:connector-curvature="0"
       id="path991"
       d="m 119.71714,100.26134 c 0,0 0.10682,-1.815859 2.13631,-3.952166 2.02949,-2.136306 24.88797,-23.819818 24.88797,-23.819818 0,0 1.81587,-1.709047 2.67039,-0.854525 0.85452,0.854525 -3.63173,6.195291 -3.63173,6.195291 l -23.28574,22.324398 c 0,0 -1.28179,1.49542 -2.7772,0.10682 z"
       style="fill:#ffffff;fill-opacity:1;stroke:#ffffff;stroke-width:0.264583px;stroke-linecap:butt;stroke-linejoin:miter;stroke-opacity:1" />
    <path
       inkscape:connector-curvature="0"
       id="path993"
       d="m 123.56249,106.88389 c 0,0 -0.53407,-1.92268 1.60223,-4.1658 2.13631,-2.24312 26.59703,-25.52886 26.59703,-25.52886 0,0 4.37943,-1.709045 2.02948,1.709046 -2.34993,3.418088 -26.81065,26.810644 -26.81065,26.810644 0,0 -1.70904,2.56357 -3.41809,1.17497 z"
       style="fill:#ffffff;fill-opacity:1;stroke:#ffffff;stroke-width:0.264583px;stroke-linecap:butt;stroke-linejoin:miter;stroke-opacity:1" />
    <path
       inkscape:connector-curvature="0"
       id="path995"
       d="m 125.05791,115.3223 c 0,0 -0.96134,-2.67038 0.32044,-3.84535 1.28179,-1.17497 30.44238,-29.160586 30.44238,-29.160586 0,0 1.81586,-1.495413 2.45674,-0.747706 0.64091,0.747706 0.85453,3.097647 -2.02948,5.661212 -2.88402,2.563569 -28.84015,27.34472 -28.84015,27.34472 0,0 -0.96133,1.17497 -2.34993,0.74771 z"
       style="fill:#ffffff;fill-opacity:1;stroke:#ffffff;stroke-width:0.264583px;stroke-linecap:butt;stroke-linejoin:miter;stroke-opacity:1" />
    <path
       inkscape:connector-curvature="0"
       id="path997"
       d="m 33.837616,146.19193 c 0,0 -0.854522,-2.7772 0.21363,-3.95217 1.068155,-1.17497 38.880781,-36.53084 38.880781,-36.53084 0,0 1.174967,-2.02949 1.922677,-1.3886 0.747707,0.64089 1.709044,2.34994 0.106812,3.84535 -1.602226,1.49542 -37.171731,35.88995 -37.171731,35.88995 0,0 -2.029492,2.67039 -3.952169,2.13631 z"
       style="fill:#ffffff;fill-opacity:1;stroke:#ffffff;stroke-width:0.264583px;stroke-linecap:butt;stroke-linejoin:miter;stroke-opacity:1" />
    <path
       inkscape:connector-curvature="0"
       id="path999"
       d="m 33.730801,155.91213 c 0,0 -1.602229,-1.92268 0.747708,-3.95217 2.349936,-2.02949 38.667148,-37.38537 38.667148,-37.38537 0,0 2.884017,-2.24312 2.563569,0.96134 -0.320445,3.20446 -9.827008,10.78835 -9.827008,10.78835 l -26.703836,25.52886 c 0,0 -3.418089,4.37943 -5.447581,4.05899 z"
       style="fill:#ffffff;fill-opacity:1;stroke:#ffffff;stroke-width:0.264583px;stroke-linecap:butt;stroke-linejoin:miter;stroke-opacity:1" />
    <path
       inkscape:connector-curvature="0"
       id="path1001"
       d="m 33.517171,165.09824 c 0,0 -0.640892,-2.1363 0.320445,-3.20446 0.961337,-1.06815 39.628489,-38.13307 39.628489,-38.13307 0,0 2.029491,-0.74771 2.243121,0.10682 0.213633,0.85452 0.747707,2.7772 -0.961337,4.16579 -1.709047,1.3886 -36.744474,35.03543 -36.744474,35.03543 0,0 -2.563569,3.20446 -4.486244,2.02949 z"
       style="fill:#ffffff;fill-opacity:1;stroke:#ffffff;stroke-width:0.264583px;stroke-linecap:butt;stroke-linejoin:miter;stroke-opacity:1" />
    <path
       inkscape:connector-curvature="0"
       id="path1003"
       d="m 33.303539,174.39118 c 0,0 -1.174967,-1.28179 -0.106815,-2.7772 1.068155,-1.49542 39.201229,-37.599 39.201229,-37.599 0,0 1.815856,-1.92267 2.456751,-1.81586 0.640892,0.10682 2.990826,1.28178 0.747707,3.73854 C 73.35929,138.39441 36.508,173.32302 36.508,173.32302 c 0,0 -1.815862,2.0295 -3.204461,1.06816 z"
       style="fill:#ffffff;fill-opacity:1;stroke:#ffffff;stroke-width:0.264583px;stroke-linecap:butt;stroke-linejoin:miter;stroke-opacity:1" />
    <path
       inkscape:connector-curvature="0"
       id="path1005"
       d="m 33.410354,183.5773 c 0,0 -1.602229,-1.3886 1.174969,-4.05899 2.777199,-2.67038 48.066901,-45.61014 48.066901,-45.61014 0,0 1.388596,-1.81586 2.456748,-1.28179 1.068158,0.53408 0.74771,1.92268 -1.815859,4.69988 -2.563566,2.7772 -46.998745,45.61014 -46.998745,45.61014 0,0 -1.495415,1.70905 -2.884014,0.6409 z"
       style="fill:#ffffff;fill-opacity:1;stroke:#ffffff;stroke-width:0.264583px;stroke-linecap:butt;stroke-linejoin:miter;stroke-opacity:1" />
    <path
       inkscape:connector-curvature="0"
       id="path1007"
       d="m 33.089909,192.6566 c 0,0 -1.281784,-1.17497 1.709044,-4.05898 2.990832,-2.88402 57.466649,-54.58264 57.466649,-54.58264 0,0 1.281785,-1.60223 2.34994,-0.21363 1.068152,1.3886 -2.56357,4.48625 -2.56357,4.48625 l -56.078049,53.83492 c 0,0 -1.3886,2.02949 -2.884014,0.53408 z"
       style="fill:#ffffff;fill-opacity:1;stroke:#ffffff;stroke-width:0.264583px;stroke-linecap:butt;stroke-linejoin:miter;stroke-opacity:1" />
    <path
       inkscape:connector-curvature="0"
       id="path1009"
       d="m 33.089909,202.80405 c 0,0 -0.854522,-2.24312 0.640892,-3.84535 1.495415,-1.60223 66.759579,-63.98238 66.759579,-63.98238 0,0 2.13631,-2.34994 2.67038,-2.34994 0.53408,0 4.27262,0.32045 1.70905,3.20446 -2.56357,2.88402 -68.14818,65.37099 -68.14818,65.37099 0,0 -2.029492,2.99082 -3.631721,1.60222 z"
       style="fill:#ffffff;fill-opacity:1;stroke:#ffffff;stroke-width:0.264583px;stroke-linecap:butt;stroke-linejoin:miter;stroke-opacity:1" />
    <path
       sodipodi:nodetypes="ccccccc"
       inkscape:connector-curvature="0"
       id="path1015"
       d="m 81.370436,164.56417 c 0,0 -0.427257,-0.53408 0.854525,-2.02949 1.281785,-1.49542 31.724149,-30.54919 31.724149,-30.54919 0,0 3.73854,-2.0829 4.8067,-2.29653 1.06815,-0.21363 0.32043,2.61698 -4.05899,6.2487 -3.31128,3.09764 -29.374212,27.55835 -29.374212,27.55835 0,0 -2.029495,2.02949 -3.952172,1.06816 z"
       style="fill:#ffffff;fill-opacity:1;stroke:#ffffff;stroke-width:0.264583px;stroke-linecap:butt;stroke-linejoin:miter;stroke-opacity:1" />
    <path
       sodipodi:nodetypes="ccccscc"
       inkscape:connector-curvature="0"
       id="path1017"
       d="m 121.10574,127.71288 c 0,0 0.74771,-2.99083 5.02032,-7.26345 4.27261,-4.27261 33.11275,-31.937775 33.11275,-31.937775 0,0 1.92269,-2.029492 2.45676,-1.17497 0.53408,0.854522 2.13631,1.922677 -7.69071,11.215611 -9.827,9.292934 -28.94695,27.878804 -28.94695,27.878804 0,0 -2.0295,2.56356 -3.95217,1.28178 z"
       style="fill:#ffffff;fill-opacity:1;stroke:#ffffff;stroke-width:0.264583px;stroke-linecap:butt;stroke-linejoin:miter;stroke-opacity:1" />
    <path
       inkscape:connector-curvature="0"
       id="path1019"
       d="m 90.342928,165.5255 c 0,0 -0.320447,-1.81586 3.311274,-5.34076 3.631721,-3.52491 68.041368,-64.94372 68.041368,-64.94372 0,0 1.60223,-1.60223 3.09765,-0.854523 1.4954,0.747708 -0.42726,3.952169 -2.56357,5.874843 -2.13631,1.92267 -67.507294,64.0892 -67.507294,64.0892 0,0 -2.349939,2.99082 -4.379428,1.17496 z"
       style="fill:#ffffff;fill-opacity:1;stroke:#ffffff;stroke-width:0.264583px;stroke-linecap:butt;stroke-linejoin:miter;stroke-opacity:1" />
    <path
       inkscape:connector-curvature="0"
       id="path1021"
       d="m 100.70401,166.05958 c 0,0 -2.563568,-0.32045 2.45675,-5.02032 5.02032,-4.69987 60.45749,-57.89391 60.45749,-57.89391 0,0 1.92267,-1.92267 2.67037,-0.32044 0.74771,1.60223 -4.16579,6.3021 -4.16579,6.3021 l -58.32117,55.65079 c 0,0 -0.42726,1.17497 -3.09765,1.28178 z"
       style="fill:#ffffff;fill-opacity:1;stroke:#ffffff;stroke-width:0.264583px;stroke-linecap:butt;stroke-linejoin:miter;stroke-opacity:1" />
    <path
       inkscape:connector-curvature="0"
       id="path1023"
       d="m 110.31739,166.38003 c 0,0 -1.60223,-1.28179 0.42726,-3.41809 2.02949,-2.13631 53.30086,-51.16455 53.30086,-51.16455 0,0 1.70904,-2.1363 2.34993,-1.70904 0.64089,0.42726 4.37944,1.70904 -0.64089,5.87484 -5.02032,4.1658 -51.91225,49.13505 -51.91225,49.13505 0,0 -1.28179,2.45676 -3.52491,1.28179 z"
       style="fill:#ffffff;fill-opacity:1;stroke:#ffffff;stroke-width:0.264583px;stroke-linecap:butt;stroke-linejoin:miter;stroke-opacity:1" />
    <path
       inkscape:connector-curvature="0"
       id="path1025"
       d="m 120.35803,165.84595 c 0,0 -2.88401,0.32045 -1.3886,-1.06815 1.49542,-1.3886 45.71696,-44.00792 45.71696,-44.00792 0,0 2.13631,-1.06815 2.0295,0.42726 -0.10682,1.49542 -0.74771,3.63172 -1.81587,4.59306 -1.06814,0.96134 -41.97842,38.9876 -41.97842,38.9876 0,0 -1.28178,1.3886 -2.56357,1.06815 z"
       style="fill:#ffffff;fill-opacity:1;stroke:#ffffff;stroke-width:0.264583px;stroke-linecap:butt;stroke-linejoin:miter;stroke-opacity:1" />
    <path
       inkscape:connector-curvature="0"
       id="path1027"
       d="m 132.10772,163.81646 c 0,0 -0.64089,-1.81586 0.42726,-2.88401 1.06815,-1.06816 29.80149,-28.84014 29.80149,-28.84014 0,0 2.45675,-1.60223 1.92267,0.53407 -0.53407,2.13631 -1.06815,3.73854 -2.45675,5.23395 -1.38861,1.49542 -25.95613,24.88798 -25.95613,24.88798 0,0 -0.74771,1.28178 -3.73854,1.06815 z"
       style="fill:#ffffff;fill-opacity:1;stroke:#ffffff;stroke-width:0.264583px;stroke-linecap:butt;stroke-linejoin:miter;stroke-opacity:1" />
    <path
       inkscape:connector-curvature="0"
       id="path1029"
       d="m 32.876279,212.2038 c 0,0 -0.427262,-2.34993 0.320445,-3.20446 0.747707,-0.85452 39.735303,-38.23988 39.735303,-38.23988 0,0 2.349939,-2.0295 2.029489,0.64089 -0.320442,2.67038 -2.990826,5.12713 -2.990826,5.12713 L 36.93526,210.0675 c 0,0 -2.456751,3.09764 -4.058981,2.1363 z"
       style="fill:#ffffff;fill-opacity:1;stroke:#ffffff;stroke-width:0.264583px;stroke-linecap:butt;stroke-linejoin:miter;stroke-opacity:1" />
    <path
       inkscape:connector-curvature="0"
       id="path1031"
       d="m 37.362522,216.79686 c 0,0 -1.281784,-1.81586 0.106815,-3.20446 1.3886,-1.3886 35.24906,-33.21956 35.24906,-33.21956 0,0 1.815862,-0.96134 1.815862,0.64089 0,1.60223 0.427257,2.45675 -3.311279,5.66121 -3.738536,3.20446 -30.015107,28.51969 -30.015107,28.51969 0,0 -1.388599,2.56357 -3.845351,1.60223 z"
       style="fill:#ffffff;fill-opacity:1;stroke:#ffffff;stroke-width:0.264583px;stroke-linecap:butt;stroke-linejoin:miter;stroke-opacity:1" />
    <path
       inkscape:connector-curvature="0"
       id="path1033"
       d="m 46.975901,216.3696 c 0,0 0.213633,-2.1363 1.495414,-3.5249 1.281785,-1.3886 24.353897,-23.28575 24.353897,-23.28575 0,0 2.349934,-1.49541 2.029492,0.53408 -0.320445,2.02949 -1.388599,3.41809 -3.097644,5.34077 -1.709047,1.92267 -21.04262,20.08128 -21.04262,20.08128 0,0 -2.029492,1.92267 -3.738539,0.85452 z"
       style="fill:#ffffff;fill-opacity:1;stroke:#ffffff;stroke-width:0.264583px;stroke-linecap:butt;stroke-linejoin:miter;stroke-opacity:1" />
    <path
       inkscape:connector-curvature="0"
       id="path1035"
       d="m 56.16202,216.90368 c 0,0 -0.534077,-1.81586 1.495414,-3.63172 2.029493,-1.81586 15.488223,-14.74052 15.488223,-14.74052 0,0 4.058984,0.10682 0.640895,3.84535 -3.418094,3.73854 -13.351917,13.67236 -13.351917,13.67236 0,0 -2.136308,2.34994 -4.272615,0.85453 z"
       style="fill:#ffffff;fill-opacity:1;stroke:#ffffff;stroke-width:0.264583px;stroke-linecap:butt;stroke-linejoin:miter;stroke-opacity:1" />
    <path
       inkscape:connector-curvature="0"
       id="path1037"
       d="m 66.416292,216.90368 c 0,0 -0.640892,-1.60223 2.349939,-4.69988 2.990829,-3.09764 4.379426,-5.12713 5.020321,-4.16579 0.64089,0.96133 1.495414,2.24312 0.106812,3.73853 -1.388597,1.49542 -5.127133,5.12714 -5.127133,5.12714 0,0 -1.068157,1.70904 -2.349939,0 z"
       style="fill:#ffffff;fill-opacity:1;stroke:#ffffff;stroke-width:0.264583px;stroke-linecap:butt;stroke-linejoin:miter;stroke-opacity:1" />
  </g>
</svg>
