<?xml version="1.0" encoding="UTF-8" standalone="no"?>
<svg
   xmlns:osb="http://www.openswatchbook.org/uri/2009/osb"
   xmlns:dc="http://purl.org/dc/elements/1.1/"
   xmlns:cc="http://creativecommons.org/ns#"
   xmlns:rdf="http://www.w3.org/1999/02/22-rdf-syntax-ns#"
   xmlns:svg="http://www.w3.org/2000/svg"
   xmlns="http://www.w3.org/2000/svg"
   xmlns:sodipodi="http://sodipodi.sourceforge.net/DTD/sodipodi-0.dtd"
   xmlns:inkscape="http://www.inkscape.org/namespaces/inkscape"
   version="1.1"
   id="svg901"
   width="546.06952"
   height="635.35809"
   viewBox="0 0 546.06952 635.3581"
   sodipodi:docname="s.svg"
   inkscape:version="1.0beta2 (2b71d25, 2019-12-03)">
  <metadata
     id="metadata907">
    <rdf:RDF>
      <cc:Work
         rdf:about="">
        <dc:format>image/svg+xml</dc:format>
        <dc:type
           rdf:resource="http://purl.org/dc/dcmitype/StillImage" />
        <dc:title />
      </cc:Work>
    </rdf:RDF>
  </metadata>
  <defs
     id="defs905">
    <linearGradient
       osb:paint="solid"
       id="linearGradient848">
      <stop
         id="stop846"
         offset="0"
         style="stop-color:#000000;stop-opacity:1;" />
    </linearGradient>
  </defs>
  <sodipodi:namedview
     pagecolor="#ffffff"
     bordercolor="#666666"
     inkscape:document-rotation="0"
     borderopacity="1"
     objecttolerance="10"
     gridtolerance="10"
     guidetolerance="10"
     inkscape:pageopacity="0"
     inkscape:pageshadow="2"
     inkscape:window-width="1256"
     inkscape:window-height="748"
     id="namedview903"
     showgrid="false"
     inkscape:zoom="0.75139144"
     inkscape:cx="207.15697"
     inkscape:cy="281.74572"
     inkscape:window-x="0"
     inkscape:window-y="23"
     inkscape:window-maximized="0"
     inkscape:current-layer="layer2" />
  <g
     transform="translate(-15.661536,-74.9259)"
     inkscape:groupmode="layer"
     inkscape:label="Image"
     id="g909"
     style="display:inline" />
  <g
     transform="translate(-15.661536,-74.9259)"
     inkscape:groupmode="layer"
     id="layer4"
     inkscape:label="Image 3" />
  <g
     transform="translate(-15.661536,-74.9259)"
     inkscape:groupmode="layer"
     id="layer2"
     inkscape:label="Image 2"
     style="display:inline">
    <path
       inkscape:connector-curvature="0"
       id="path913"
       d="m 55.968614,176.53457 c 0,0 2.486736,-14.29873 13.055363,-23.62399 10.568628,-9.32526 35.435993,-31.70588 35.435993,-31.70588 0,0 15.5421,3.7301 4.35179,15.5421 -11.190319,11.81199 -37.301047,36.05767 -37.301047,36.05767 0,0 -16.785467,13.67704 -15.542099,3.7301 z"
       style="display:inline;fill:#ffffff;fill-opacity:1;stroke:#ffffff;stroke-width:1px;stroke-linecap:butt;stroke-linejoin:miter;stroke-opacity:1" />
    <path
       inkscape:connector-curvature="0"
       id="path915"
       d="m 37.318094,233.7295 c 0,0 -7.460208,-7.46021 1.243368,-16.16379 8.703576,-8.70357 128.066908,-123.715107 128.066908,-123.715107 0,0 8.70357,-11.190312 15.5421,-4.973472 6.83852,6.21684 -11.19032,24.245679 -11.19032,24.245679 L 54.725246,224.40424 c 0,0 -10.568628,16.16378 -17.407152,9.32526 z"
       style="display:inline;fill:#ffffff;fill-opacity:1;stroke:#ffffff;stroke-width:1px;stroke-linecap:butt;stroke-linejoin:miter;stroke-opacity:1" />
    <path
       inkscape:connector-curvature="0"
       id="path917"
       d="m 36.074726,272.2739 c 0,0 -13.677047,-4.35179 6.838524,-22.38062 20.515572,-18.02884 174.07152,-167.232989 174.07152,-167.232989 0,0 24.86736,-9.32526 14.92041,4.973472 C 221.95824,101.9325 50.995142,264.81369 50.995142,264.81369 c 0,0 -11.190312,14.92042 -14.920416,7.46021 z"
       style="display:inline;fill:#ffffff;fill-opacity:1;stroke:#ffffff;stroke-width:1px;stroke-linecap:butt;stroke-linejoin:miter;stroke-opacity:1" />
    <path
       inkscape:connector-curvature="0"
       id="path919"
       d="m 43.534934,305.22315 c 0,0 -8.703576,-4.97347 -3.730104,-11.81199 4.973472,-6.83853 23.623992,-24.24568 23.623992,-24.24568 L 252.42076,84.525343 c 0,0 8.08189,-14.298732 18.02883,-6.838524 9.94695,7.460208 -4.97347,19.272204 -4.97347,19.272204 L 52.23851,303.3581 c 0,0 -6.21684,7.46021 -8.703576,1.86505 z"
       style="display:inline;fill:#ffffff;fill-opacity:1;stroke:#ffffff;stroke-width:1px;stroke-linecap:butt;stroke-linejoin:miter;stroke-opacity:1" />
    <path
       inkscape:connector-curvature="0"
       id="path921"
       d="m 49.13009,326.98209 c 0,0 -3.10842,-7.4602 14.920415,-23.62399 C 82.079341,287.19432 294.69527,80.173555 294.69527,80.173555 c 0,0 19.89388,-11.811995 17.40715,1.865052 -2.48674,13.677048 -39.78778,44.139563 -39.78778,44.139563 L 64.672189,326.98209 c 0,0 -6.838523,7.46021 -15.542099,0 z"
       style="display:inline;fill:#ffffff;fill-opacity:1;stroke:#ffffff;stroke-width:1px;stroke-linecap:butt;stroke-linejoin:miter;stroke-opacity:1" />
    <path
       inkscape:connector-curvature="0"
       id="path864"
       d="m 70.267344,356.82292 c 0,0 -19.272203,-4.35179 -4.973472,-16.78547 C 79.592604,327.60377 332.61799,82.038607 332.61799,82.038607 c 0,0 7.4602,-6.21684 11.19031,-2.486736 3.7301,3.730104 -1.86505,18.028835 -5.59516,21.137259 -3.7301,3.10842 -267.945796,256.13379 -267.945796,256.13379 z"
       style="display:inline;fill:#ffffff;fill-opacity:1;stroke:#ffffff;stroke-width:1px;stroke-linecap:butt;stroke-linejoin:miter;stroke-opacity:1" />
    <path
       inkscape:connector-curvature="0"
       id="path866"
       d="m 257.39422,204.51035 c 0,0 -9.32526,-5.59516 6.83853,-19.89389 16.16378,-14.29873 100.7128,-97.604382 100.7128,-97.604382 0,0 15.5421,-6.838523 11.19031,4.973472 -4.35178,11.812 -37.30103,41.65283 -37.30103,41.65283 l -69.62861,68.38523 c 0,0 -0.62168,4.97347 -11.812,2.48674 z"
       style="display:inline;fill:#ffffff;fill-opacity:1;stroke:#ffffff;stroke-width:1px;stroke-linecap:butt;stroke-linejoin:miter;stroke-opacity:1" />
    <path
       inkscape:connector-curvature="0"
       id="path868"
       d="m 304.02052,205.13203 c 0,0 -11.19031,0 -11.19031,-8.08189 0,-8.08189 61.54671,-60.92503 61.54671,-60.92503 L 397.8948,94.472286 c 0,0 12.43368,-0.621684 7.46021,9.325264 -4.97347,9.94694 -60.30335,63.41176 -60.30335,63.41176 z"
       style="display:inline;fill:#ffffff;fill-opacity:1;stroke:#ffffff;stroke-width:1px;stroke-linecap:butt;stroke-linejoin:miter;stroke-opacity:1" />
    <path
       inkscape:connector-curvature="0"
       id="path870"
       d="m 332.61799,213.21392 c 0,0 -11.812,-6.83852 -9.94695,-11.81199 1.86505,-4.97348 40.40946,-37.92273 40.40946,-37.92273 l 59.68166,-58.43829 c 0,0 14.29873,-4.35178 11.19031,6.83853 -3.10842,11.19031 -68.38523,70.25028 -68.38523,70.25028 z"
       style="display:inline;fill:#ffffff;fill-opacity:1;stroke:#ffffff;stroke-width:1px;stroke-linecap:butt;stroke-linejoin:miter;stroke-opacity:1" />
    <path
       inkscape:connector-curvature="0"
       id="path872"
       d="m 356.86366,226.26929 c 0,0 -16.16378,-4.97348 -6.83852,-13.67705 9.32526,-8.70358 94.49596,-92.00923 94.49596,-92.00923 0,0 12.43368,-6.21684 13.05536,3.10842 0.62169,9.32526 -35.43598,41.65283 -35.43598,41.65283 z"
       style="display:inline;fill:#ffffff;fill-opacity:1;stroke:#ffffff;stroke-width:1px;stroke-linecap:butt;stroke-linejoin:miter;stroke-opacity:1" />
    <path
       inkscape:connector-curvature="0"
       id="path874"
       d="m 375.51418,247.40654 c 0,0 -14.92042,-6.83852 -7.46021,-15.5421 7.46021,-8.70357 98.22607,-96.36101 98.22607,-96.36101 0,0 14.29873,-3.7301 11.19031,6.21684 -3.10842,9.94694 -36.67935,39.78777 -36.67935,39.78777 z"
       style="display:inline;fill:#ffffff;fill-opacity:1;stroke:#ffffff;stroke-width:1px;stroke-linecap:butt;stroke-linejoin:miter;stroke-opacity:1" />
    <path
       inkscape:connector-curvature="0"
       id="path884"
       d="m 381.73102,275.38232 c 0,0 -16.16378,-4.97347 -6.21684,-14.29873 9.94694,-9.32526 108.7947,-106.30796 108.7947,-106.30796 0,0 4.35178,-4.35179 6.83852,-0.62169 2.48674,3.73011 6.21684,8.0819 0.62168,16.16379 -5.59515,8.08189 -110.03806,105.06459 -110.03806,105.06459 z"
       style="display:inline;fill:#ffffff;fill-opacity:1;stroke:#ffffff;stroke-width:1px;stroke-linecap:butt;stroke-linejoin:miter;stroke-opacity:1" />
    <path
       inkscape:connector-curvature="0"
       id="path886"
       d="m 417.78869,278.49074 c 0,0 -11.812,-2.48674 -8.70358,-9.94694 3.10842,-7.46021 91.38755,-93.2526 91.38755,-93.2526 0,0 7.46021,-6.21684 9.32526,4.35179 1.86505,10.56862 -5.59516,16.16378 -5.59516,16.16378 z"
       style="display:inline;fill:#ffffff;fill-opacity:1;stroke:#ffffff;stroke-width:1px;stroke-linecap:butt;stroke-linejoin:miter;stroke-opacity:1" />
    <path
       inkscape:connector-curvature="0"
       id="path896"
       d="m 453.22468,279.73411 c 0,0 -10.56863,-3.10842 -9.32526,-7.46021 1.24337,-4.35179 36.67935,-37.92272 36.67935,-37.92272 l 34.19262,-34.19262 c 0,0 22.38062,-4.97347 9.94694,9.94694 -12.43368,14.92042 -71.49365,69.62861 -71.49365,69.62861 z"
       style="display:inline;fill:#ffffff;fill-opacity:1;stroke:#ffffff;stroke-width:1px;stroke-linecap:butt;stroke-linejoin:miter;stroke-opacity:1" />
    <path
       inkscape:connector-curvature="0"
       id="path898"
       d="m 491.1474,281.59916 c 0,0 -15.5421,-6.21684 -6.21684,-16.16378 9.32526,-9.94695 41.03114,-39.16609 41.03114,-39.16609 0,0 19.89389,1.24336 9.32526,11.81199 -10.56863,10.56863 -44.13956,43.51788 -44.13956,43.51788 z"
       style="display:inline;fill:#ffffff;fill-opacity:1;stroke:#ffffff;stroke-width:1px;stroke-linecap:butt;stroke-linejoin:miter;stroke-opacity:1" />
    <path
       inkscape:connector-curvature="0"
       id="path900"
       d="m 527.82675,279.11242 c 0,0 -9.94694,-2.48673 -8.08189,-8.08189 1.86505,-5.59515 11.19031,-15.5421 11.19031,-15.5421 0,0 14.29874,0 8.70358,10.56863 -5.59516,10.56863 -11.812,13.05536 -11.812,13.05536 z"
       style="display:inline;fill:#ffffff;fill-opacity:1;stroke:#ffffff;stroke-width:1px;stroke-linecap:butt;stroke-linejoin:miter;stroke-opacity:1" />
    <path
       inkscape:connector-curvature="0"
       id="path902"
       d="m 89.539548,376.71681 c 0,0 -17.407152,-8.70358 -7.460208,-16.78547 9.946943,-8.08189 113.14649,-106.30796 113.14649,-106.30796 0,0 20.51557,4.97347 6.21684,17.40715 C 187.14393,283.46421 89.539548,376.71681 89.539548,376.71681 Z"
       style="display:inline;fill:#ffffff;fill-opacity:1;stroke:#ffffff;stroke-width:1px;stroke-linecap:butt;stroke-linejoin:miter;stroke-opacity:1" />
    <path
       inkscape:connector-curvature="0"
       id="path904"
       d="m 111.92017,393.50227 c 0,0 -17.407151,-3.7301 -3.7301,-18.65051 13.67705,-14.92042 98.22607,-95.11765 98.22607,-95.11765 0,0 5.59515,-8.08189 8.70357,1.24337 3.10842,9.32525 -3.10842,18.02883 -3.10842,18.02883 z"
       style="display:inline;fill:#ffffff;fill-opacity:1;stroke:#ffffff;stroke-width:1px;stroke-linecap:butt;stroke-linejoin:miter;stroke-opacity:1" />
    <path
       inkscape:connector-curvature="0"
       id="path906"
       d="m 134.3008,405.93595 c 0,0 -13.05537,-3.10842 -7.46021,-10.56862 5.59515,-7.46021 37.30104,-36.67936 37.30104,-36.67936 l 68.38524,-65.8985 c 0,0 5.59515,-5.59516 7.4602,-1.24337 1.86505,4.35179 -1.24337,14.29873 -8.08189,21.75894 -6.83852,7.46021 -97.60438,92.63091 -97.60438,92.63091 z"
       style="display:inline;fill:#ffffff;fill-opacity:1;stroke:#ffffff;stroke-width:1px;stroke-linecap:butt;stroke-linejoin:miter;stroke-opacity:1" />
    <path
       inkscape:connector-curvature="0"
       id="path908"
       d="m 161.03321,420.23469 c 0,0 -8.70358,-4.97348 -8.08189,-9.94695 0.62168,-4.97347 17.40715,-21.75894 17.40715,-21.75894 l 88.27912,-85.1707 c 0,0 4.35179,-9.32526 8.08189,-3.10842 3.73011,6.21684 3.73011,14.92041 0,18.65052 -3.7301,3.7301 -105.68627,101.33449 -105.68627,101.33449 z"
       style="display:inline;fill:#ffffff;fill-opacity:1;stroke:#ffffff;stroke-width:1px;stroke-linecap:butt;stroke-linejoin:miter;stroke-opacity:1" />
    <path
       inkscape:connector-curvature="0"
       id="path910"
       d="m 189.63067,428.31658 c 0,0 -15.5421,-3.10842 -8.70357,-11.19031 6.83852,-8.0819 103.82122,-103.19954 103.82122,-103.19954 0,0 8.70357,-12.43368 12.43368,-2.48674 3.7301,9.94694 -18.65052,31.70588 -18.65052,31.70588 z"
       style="display:inline;fill:#ffffff;fill-opacity:1;stroke:#ffffff;stroke-width:1px;stroke-linecap:butt;stroke-linejoin:miter;stroke-opacity:1" />
    <path
       inkscape:connector-curvature="0"
       id="path912"
       d="m 218.22813,437.64184 c 0,0 -18.02883,-2.48674 -6.21684,-14.29873 11.812,-11.812 106.30796,-105.68628 106.30796,-105.68628 0,0 8.70358,-6.83852 11.812,1.86505 3.10842,8.70358 -16.78547,26.11073 -16.78547,26.11073 z"
       style="display:inline;fill:#ffffff;fill-opacity:1;stroke:#ffffff;stroke-width:1px;stroke-linecap:butt;stroke-linejoin:miter;stroke-opacity:1" />
    <path
       inkscape:connector-curvature="0"
       id="path914"
       d="m 246.20391,443.85868 c 0,0 -14.29873,-4.97347 -3.7301,-14.92042 10.56863,-9.94694 105.68627,-102.57785 105.68627,-102.57785 0,0 8.70358,-12.43368 11.812,1.24336 3.10842,13.67705 -18.02883,26.11073 -18.02883,26.11073 z"
       style="display:inline;fill:#ffffff;fill-opacity:1;stroke:#ffffff;stroke-width:1px;stroke-linecap:butt;stroke-linejoin:miter;stroke-opacity:1" />
    <path
       inkscape:connector-curvature="0"
       id="path918"
       d="m 278.53148,455.67067 c 0,0 -18.65052,-8.08189 -6.21684,-19.89388 12.43368,-11.812 101.95617,-96.98271 101.95617,-96.98271 0,0 8.70358,-14.29873 14.92042,-3.10841 6.21684,11.19031 -96.9827,100.09112 -110.65975,119.985 z"
       style="display:inline;fill:#ffffff;fill-opacity:1;stroke:#ffffff;stroke-width:1px;stroke-linecap:butt;stroke-linejoin:miter;stroke-opacity:1" />
    <path
       inkscape:connector-curvature="0"
       id="path922"
       d="m 307.75063,461.26583 c 0,0 -16.78547,-6.21684 -5.59516,-16.78547 11.19031,-10.56863 97.60438,-97.60438 97.60438,-97.60438 0,0 9.94695,-9.94695 14.29874,-4.35179 4.35178,5.59515 3.10842,9.32526 -9.32526,23.00231 -12.43368,13.67704 -96.9827,95.73933 -96.9827,95.73933 z"
       style="display:inline;fill:#ffffff;fill-opacity:1;stroke:#ffffff;stroke-width:1px;stroke-linecap:butt;stroke-linejoin:miter;stroke-opacity:1" />
    <path
       inkscape:connector-curvature="0"
       id="path924"
       d="m 334.48304,471.21277 c 0,0 -17.40715,-4.35179 -7.46021,-14.29873 9.94694,-9.94694 106.30796,-103.82122 106.30796,-103.82122 0,0 12.43368,-3.10842 11.812,4.97347 -0.62169,8.08189 -57.19493,60.30334 -57.19493,60.30334 z"
       style="display:inline;fill:#ffffff;fill-opacity:1;stroke:#ffffff;stroke-width:1px;stroke-linecap:butt;stroke-linejoin:miter;stroke-opacity:1" />
    <path
       inkscape:connector-curvature="0"
       id="path926"
       d="m 363.70218,480.53803 c 0,0 -17.40715,0 -3.7301,-16.16378 13.67705,-16.16379 95.73933,-97.60439 95.73933,-97.60439 0,0 11.19031,-9.94694 12.43368,-1.86505 1.24337,8.08189 -11.81199,22.38063 -11.81199,22.38063 z"
       style="display:inline;fill:#ffffff;fill-opacity:1;stroke:#ffffff;stroke-width:1px;stroke-linecap:butt;stroke-linejoin:miter;stroke-opacity:1" />
    <path
       inkscape:connector-curvature="0"
       id="path928"
       d="m 386.08281,492.35003 c 0,0 -14.92042,-4.97347 -3.73011,-15.5421 11.19032,-10.56863 95.11765,-95.11765 95.11765,-95.11765 0,0 10.56863,-11.19031 14.92042,-0.62168 4.35179,10.56862 -58.4383,65.27681 -58.4383,65.27681 z"
       style="display:inline;fill:#ffffff;fill-opacity:1;stroke:#ffffff;stroke-width:1px;stroke-linecap:butt;stroke-linejoin:miter;stroke-opacity:1" />
    <path
       inkscape:connector-curvature="0"
       id="path930"
       d="m 401.00322,515.97402 c 0,0 -12.43368,-14.29873 -0.62168,-24.24568 11.81199,-9.94694 101.95617,-96.9827 101.95617,-96.9827 0,0 12.43368,-4.97347 10.56863,4.35179 -1.86505,9.32526 -46.00462,50.97809 -46.00462,50.97809 z"
       style="display:inline;fill:#ffffff;fill-opacity:1;stroke:#ffffff;stroke-width:1px;stroke-linecap:butt;stroke-linejoin:miter;stroke-opacity:1" />
    <path
       inkscape:connector-curvature="0"
       id="path932"
       d="m 396.02975,554.51842 c 0,0 -14.29873,-6.21683 0.62168,-19.2722 14.92042,-13.05536 123.09343,-120.60669 123.09343,-120.60669 0,0 3.10842,-6.21684 9.32526,0 6.21684,6.21684 -17.40715,27.97578 -17.40715,27.97578 z"
       style="display:inline;fill:#ffffff;fill-opacity:1;stroke:#ffffff;stroke-width:1px;stroke-linecap:butt;stroke-linejoin:miter;stroke-opacity:1" />
    <path
       inkscape:connector-curvature="0"
       id="path934"
       d="m 314.58915,708.69605 c 0,0 -23.62399,0.62168 -8.70358,-11.81199 C 320.80599,684.45038 541.5038,466.2393 541.5038,466.2393 c 0,0 8.08189,-11.812 9.94695,-1.86505 1.86505,9.94694 -3.73011,14.92041 -9.94695,21.13725 -6.21684,6.21684 -226.91465,223.18455 -226.91465,223.18455 z"
       style="display:inline;fill:#ffffff;fill-opacity:1;stroke:#ffffff;stroke-width:1px;stroke-linecap:butt;stroke-linejoin:miter;stroke-opacity:1" />
    <path
       inkscape:connector-curvature="0"
       id="path936"
       d="m 281.01822,708.07437 c 0,0 -27.97578,6.83852 -14.92042,-6.83853 13.05536,-13.67704 266.08074,-261.72895 266.08074,-261.72895 0,0 14.92042,-6.21684 13.67705,2.48674 -1.24337,8.70357 -27.97578,28.59746 -44.76125,45.38293 C 484.30888,504.16202 310.85905,675.7468 310.85905,675.7468 Z"
       style="display:inline;fill:#ffffff;fill-opacity:1;stroke:#ffffff;stroke-width:1px;stroke-linecap:butt;stroke-linejoin:miter;stroke-opacity:1" />
    <path
       inkscape:connector-curvature="0"
       id="path938"
       d="m 352.51187,708.07437 c 0,0 -23.62399,4.97347 -8.70357,-10.56863 14.92041,-15.5421 203.91234,-200.80392 203.91234,-200.80392 0,0 18.02884,-8.70358 12.43368,4.35178 -5.59515,13.05537 -95.73933,98.22607 -95.73933,98.22607 z"
       style="display:inline;fill:#ffffff;fill-opacity:1;stroke:#ffffff;stroke-width:1px;stroke-linecap:butt;stroke-linejoin:miter;stroke-opacity:1" />
    <path
       inkscape:connector-curvature="0"
       id="path940"
       d="m 397.8948,699.37079 c 0,0 -19.2722,2.48674 -7.4602,-10.56863 11.81199,-13.05536 160.39446,-160.39446 160.39446,-160.39446 0,0 11.19031,-3.73011 6.83852,6.83852 -4.35178,10.56863 -13.67704,23.00231 -13.67704,23.00231 z"
       style="display:inline;fill:#ffffff;fill-opacity:1;stroke:#ffffff;stroke-width:1px;stroke-linecap:butt;stroke-linejoin:miter;stroke-opacity:1" />
    <path
       inkscape:connector-curvature="0"
       id="path942"
       d="m 448.87289,684.45038 c 0,0 -13.05536,-1.24337 -9.94694,-5.59516 3.10842,-4.35179 99.46943,-100.7128 99.46943,-100.7128 0,0 18.02884,-6.21684 8.08189,9.32526 -9.94694,15.5421 -97.60438,96.9827 -97.60438,96.9827 z"
       style="display:inline;fill:#ffffff;fill-opacity:1;stroke:#ffffff;stroke-width:1px;stroke-linecap:butt;stroke-linejoin:miter;stroke-opacity:1" />
    <path
       inkscape:connector-curvature="0"
       id="path944"
       d="m 240.60876,708.69605 c 0,0 -15.5421,-8.08189 -7.46021,-14.92041 8.08189,-6.83853 131.797,-124.3368 131.797,-124.3368 0,0 6.83853,-8.08189 17.40715,-3.10842 10.56863,4.97347 -82.68397,78.33218 -141.74394,142.36563 z"
       style="display:inline;fill:#ffffff;fill-opacity:1;stroke:#ffffff;stroke-width:1px;stroke-linecap:butt;stroke-linejoin:miter;stroke-opacity:1" />
    <path
       inkscape:connector-curvature="0"
       id="path946"
       d="m 212.01129,703.72258 c 0,0 -18.65052,-4.35179 -9.32526,-14.29873 9.32526,-9.94695 102.57786,-102.57786 102.57786,-102.57786 0,0 7.46021,-10.56863 14.92042,-2.48673 7.4602,8.08189 -20.51558,29.84083 -20.51558,29.84083 z"
       style="display:inline;fill:#ffffff;fill-opacity:1;stroke:#ffffff;stroke-width:1px;stroke-linecap:butt;stroke-linejoin:miter;stroke-opacity:1" />
    <path
       inkscape:connector-curvature="0"
       id="path948"
       d="m 181.54878,695.64069 c 0,0 -16.78547,-3.73011 -3.10842,-18.65052 13.67705,-14.92042 93.2526,-92.00923 93.2526,-92.00923 0,0 6.83852,-9.32526 11.19031,-0.62168 4.35179,8.70357 -32.94925,41.65282 -32.94925,41.65282 z"
       style="display:inline;fill:#ffffff;fill-opacity:1;stroke:#ffffff;stroke-width:1px;stroke-linecap:butt;stroke-linejoin:miter;stroke-opacity:1" />
    <path
       inkscape:connector-curvature="0"
       id="path950"
       d="m 153.573,685.69374 c 0,0 -14.92042,-4.97347 -5.59516,-14.92041 9.32526,-9.94695 93.2526,-93.2526 93.2526,-93.2526 0,0 21.75894,-8.70357 7.46021,9.32526 -14.29873,18.02884 -95.11765,98.84775 -95.11765,98.84775 z"
       style="display:inline;fill:#ffffff;fill-opacity:1;stroke:#ffffff;stroke-width:1px;stroke-linecap:butt;stroke-linejoin:miter;stroke-opacity:1" />
    <path
       inkscape:connector-curvature="0"
       id="path960"
       d="m 129.32733,673.26006 c 0,0 -20.51558,-3.7301 -6.21684,-16.16378 14.29873,-12.43368 88.9008,-88.90081 88.9008,-88.90081 0,0 8.0819,-5.59515 11.812,-1.24337 3.7301,4.35179 -18.65052,31.0842 -18.65052,31.0842 z"
       style="display:inline;fill:#ffffff;fill-opacity:1;stroke:#ffffff;stroke-width:1px;stroke-linecap:butt;stroke-linejoin:miter;stroke-opacity:1" />
    <path
       inkscape:connector-curvature="0"
       id="path962"
       d="m 105.70333,659.58302 c 0,0 -18.650518,-9.94695 -7.460207,-19.27221 11.190317,-9.32526 93.252597,-87.65744 93.252597,-87.65744 0,0 7.46021,-8.70357 11.19031,-1.86505 3.73011,6.83852 -29.21914,40.40946 -29.21914,40.40946 z"
       style="display:inline;fill:#ffffff;fill-opacity:1;stroke:#ffffff;stroke-width:1px;stroke-linecap:butt;stroke-linejoin:miter;stroke-opacity:1" />
    <path
       inkscape:connector-curvature="0"
       id="path964"
       d="m 83.322708,643.41923 c 0,0 -14.298732,-11.81199 -6.21684,-18.02883 8.081892,-6.21684 102.577862,-98.22607 102.577862,-98.22607 0,0 8.08189,-9.94694 12.43368,0.62168 4.35178,10.56863 -22.38063,30.46252 -22.38063,30.46252 z"
       style="display:inline;fill:#ffffff;fill-opacity:1;stroke:#ffffff;stroke-width:1px;stroke-linecap:butt;stroke-linejoin:miter;stroke-opacity:1" />
    <path
       inkscape:connector-curvature="0"
       id="path966"
       d="m 65.293872,620.41693 c 0,0 -16.163783,-3.10842 -3.108419,-16.16379 13.055363,-13.05536 111.281437,-108.17301 111.281437,-108.17301 0,0 9.32526,-10.56863 11.81199,0.62169 2.48674,11.19031 -31.0842,40.40945 -31.0842,40.40945 z"
       style="display:inline;fill:#ffffff;fill-opacity:1;stroke:#ffffff;stroke-width:1px;stroke-linecap:butt;stroke-linejoin:miter;stroke-opacity:1" />
    <path
       inkscape:connector-curvature="0"
       id="path968"
       d="m 54.103561,599.27967 c 0,0 -15.5421,-5.59515 -7.460208,-15.5421 8.081892,-9.94694 94.495967,-92.00923 94.495967,-92.00923 0,0 10.56863,-3.7301 11.19031,-0.62168 0.62169,3.10842 14.92042,-3.10842 -18.02883,28.59746 -32.94925,31.70588 -80.197239,79.57555 -80.197239,79.57555 z"
       style="display:inline;fill:#ffffff;fill-opacity:1;stroke:#ffffff;stroke-width:1px;stroke-linecap:butt;stroke-linejoin:miter;stroke-opacity:1" />
    <path
       inkscape:connector-curvature="0"
       id="path970"
       d="m 39.183145,573.79063 c 0,0 -15.542098,-4.97347 -4.351787,-16.16379 11.190311,-11.19031 66.520192,-65.8985 66.520192,-65.8985 0,0 10.56862,-8.70357 11.81199,0 1.24337,8.70358 -18.650521,29.21915 -18.650521,29.21915 z"
       style="display:inline;fill:#ffffff;fill-opacity:1;stroke:#ffffff;stroke-width:1px;stroke-linecap:butt;stroke-linejoin:miter;stroke-opacity:1" />
    <path
       inkscape:connector-curvature="0"
       id="path972"
       d="m 29.236202,545.19317 c 0,0 -12.433679,-5.59516 -4.973471,-14.92042 7.460207,-9.32526 38.544406,-39.16609 38.544406,-39.16609 0,0 11.811995,-9.32526 13.677047,0 1.865052,9.32526 -23.002307,31.70588 -23.002307,31.70588 z"
       style="display:inline;fill:#ffffff;fill-opacity:1;stroke:#ffffff;stroke-width:1px;stroke-linecap:butt;stroke-linejoin:miter;stroke-opacity:1" />
    <path
       inkscape:connector-curvature="0"
       id="path974"
       d="m 21.154311,513.48728 c 0,0 -9.325259,-11.19031 -2.486736,-18.02883 6.838524,-6.83853 15.542099,-11.19031 18.650519,-8.08189 3.108419,3.10842 5.595155,11.19031 -3.730104,18.65051 -9.325259,7.46021 -12.433679,7.46021 -12.433679,7.46021 z"
       style="display:inline;fill:#ffffff;fill-opacity:1;stroke:#ffffff;stroke-width:1px;stroke-linecap:butt;stroke-linejoin:miter;stroke-opacity:1" />
  </g>
</svg>
